<svg width="143" height="144" viewBox="0 0 143 144" fill="none" xmlns="http://www.w3.org/2000/svg">
<path d="M71.5325 0.623291C71.1366 1.0192 70.8538 1.64133 70.8538 2.0938C70.8538 3.67743 67.9127 8.76767 65.5939 11.1431C64.293 12.5005 60.7864 15.2153 57.7888 17.1383C50.3231 22.1154 46.7034 26.4704 44.2714 33.5968C43.6493 35.4066 43.1402 37.5558 43.1402 38.4042C43.1402 39.8182 42.9706 39.9313 38.7852 40.5534C29.7925 41.9108 21.3653 47.6232 17.0103 55.2586C13.8431 60.8578 5.13308 68.3801 1.73958 68.3801C0.21251 68.3801 -0.579305 70.3596 0.495301 71.4342C0.947767 71.9432 1.73958 72.3391 2.19205 72.3391C3.83224 72.3391 8.80936 75.2802 11.1848 77.7122C12.5422 79.0696 15.0308 82.2934 16.7275 84.8951C20.3472 90.4378 23.0055 93.2657 26.9646 95.8108C30.0187 97.7338 36.2967 100.053 38.3893 100.053C39.5205 100.053 39.7467 100.449 40.0295 102.767C41.3869 113.174 46.4772 120.866 55.6962 126.635C60.6167 129.689 65.2545 134.779 67.2906 139.417C68.5349 142.358 69.1005 143.037 70.1185 143.037C71.0235 143.037 71.4759 142.585 71.7587 141.453C73.0596 136.08 76.7358 131.725 84.0319 126.692C93.1377 120.527 96.9837 115.55 99.0763 107.292L100.151 103.163L103.149 102.824C112.085 101.863 119.833 96.8854 125.263 88.6279C128.883 83.1418 134.086 78.1081 137.988 76.3548C142.287 74.3752 142.4 74.2621 142.4 72.9047C142.4 71.8301 141.891 71.4908 139.742 70.8686C135.274 69.5112 130.07 64.9866 126.564 59.3308C120.908 50.1118 113.725 44.7953 105.354 43.551L102.809 43.2117L102.413 39.8182C101.339 30.2598 96.0788 22.4548 86.5204 16.3465C81.6564 13.2923 77.9236 9.16357 75.7743 4.46924C73.6817 -0.0554199 72.8899 -0.7341 71.5325 0.623291ZM79.281 15.385C80.4687 16.4596 83.3531 18.6088 85.672 20.1924C90.7057 23.5859 94.6082 27.7712 96.5312 31.8434C98.0583 35.0673 99.0763 38.8567 99.1329 41.2887C99.1329 42.6461 98.9067 42.8158 96.4181 43.0985C89.7442 43.8904 83.1269 47.1707 78.0932 52.1479C75.3784 54.9192 72.5505 59.2176 72.5505 60.6881C72.5505 62.3849 71.4759 61.5931 70.8538 59.4439C68.7611 51.5823 58.92 42.9854 49.8707 41.119C46.0247 40.3272 45.855 39.9313 47.6083 34.841C49.9272 28.1672 52.9248 24.7737 61.9741 18.6088C66.6119 15.4416 70.4013 11.5956 71.8718 8.59799L72.7202 6.8447L74.926 10.1251C76.1137 11.9349 78.0932 14.3104 79.281 15.385ZM42.8009 46.4355C44.0452 56.3332 50.4928 65.8915 58.411 69.6244C61.2389 70.9252 61.9741 71.7736 60.3339 71.7736C59.8249 71.7736 57.6757 72.6785 55.5265 73.8097C48.4001 77.5425 42.405 85.5738 40.7648 93.3223C39.973 97.1117 39.8599 97.1682 35.109 95.6412C28.3785 93.4354 24.0801 89.8157 19.2161 82.35C15.9357 77.2597 11.9201 73.0744 8.80937 71.3777C7.79132 70.8686 6.94294 70.2465 6.94294 70.0768C6.94294 69.9071 7.84787 69.285 8.92248 68.7194C11.8635 67.0792 16.9538 61.8759 19.7251 57.5209C21.0825 55.3717 23.458 52.4872 24.9285 51.0732C28.1523 47.9625 34.3737 44.7953 38.6156 44.1166C40.3123 43.8338 41.896 43.6076 42.0656 43.551C42.2919 43.551 42.5746 44.8518 42.8009 46.4355ZM54.7347 46.5486C59.0331 48.4716 64.6889 54.184 66.8381 58.7086C68.3652 61.989 70.1751 69.2284 69.6095 69.8506C69.0439 70.3596 61.4651 67.6448 58.92 66.0612C52.8117 62.2152 47.8346 54.9192 46.5337 48.0757C45.6288 43.3813 45.5722 43.4944 48.7395 44.3428C50.2666 44.7387 52.9814 45.7002 54.7347 46.5486ZM98.8501 48.415C97.6058 55.5414 91.1016 64.0251 84.4278 67.1924C81.2605 68.7194 73.9645 70.5293 73.3989 69.9637C72.8899 69.4547 74.8694 63.0636 76.3965 60.2357C79.79 53.9012 87.3688 48.3019 94.3255 47.0011C99.246 46.0396 99.246 46.0396 98.8501 48.415ZM111.293 49.4331C116.214 51.8085 119.72 55.202 123.453 60.9709C126.451 65.6653 131.088 70.4162 134.086 71.9998C135.104 72.5088 135.896 73.0179 135.896 73.131C135.896 73.1875 134.651 74.0925 133.124 75.0539C129.787 77.2597 124.414 82.9156 122.887 85.8566C119.324 92.9264 109.087 99.4306 101.621 99.4871C99.9813 99.4871 99.9247 99.374 99.7551 96.8854C99.3026 88.0623 92.5156 77.8253 84.2015 73.64C82.1089 72.5654 81.5998 72.1129 82.222 71.717C82.6745 71.4342 83.4097 71.208 83.9753 71.208C85.672 71.208 93.5336 65.439 95.8525 62.498C98.7936 58.8783 101.226 53.7315 102.017 49.6593L102.64 46.492L105.015 46.9445C106.259 47.2273 109.144 48.3585 111.293 49.4331ZM68.7611 76.6941C65.9898 87.3836 57.6757 94.8493 46.6468 96.6026L43.5927 97.0551L43.932 94.7362C44.1583 93.4919 45.1763 90.6075 46.2509 88.4017C50.21 80.2573 59.5987 73.8097 67.8562 73.5269L69.6095 73.4703L68.7611 76.6941ZM79.6203 75.3367C85.6155 77.8253 90.9885 82.8024 93.7599 88.3451C95.0607 91.0599 97.0968 98.865 96.5878 99.374C96.1353 99.8265 89.1786 97.6772 86.577 96.2633C80.7515 93.096 75.2088 85.5172 73.7382 78.6737C72.7202 73.8097 72.8333 73.4703 74.9825 73.8662C75.944 74.0359 78.0932 74.7146 79.6203 75.3367ZM71.8718 84.1033C73.3989 89.1935 79.0547 95.9239 84.4843 99.0912C87.1426 100.675 93.4771 102.881 95.2304 102.881C96.4747 102.881 96.5312 103.39 95.5132 107.122C93.7599 113.74 89.518 119.056 82.222 123.751C77.4145 126.861 72.7202 131.273 71.08 134.27C69.8923 136.533 69.3833 136.702 68.8742 135.119C68.0824 132.63 62.8791 127.314 58.0716 123.977C49.192 117.925 44.7239 111.704 43.932 104.351C43.7058 102.428 43.4796 100.788 43.4796 100.675C43.423 100.562 44.6673 100.392 46.1944 100.222C55.3003 99.4871 65.3676 92.7001 69.2136 84.7254C69.9489 83.2549 70.7407 82.0106 70.9103 81.9541C71.08 81.9541 71.5325 82.9156 71.8718 84.1033Z" fill="#980A68"/>
</svg>
